HIERARCHY
ROOT Hips
{
	OFFSET 0.00000 0.00000 0.00000
	CHANNELS 6 Xposition Yposition Zposition Zrotation Yrotation Xrotation 
	JOINT LHipJoint
	{
		OFFSET 0 0 0
		CHANNELS 3 Zrotation Yrotation Xrotation
		JOINT LeftHip
		{
			OFFSET 1.36337 -1.57426 1.11036
			CHANNELS 3 Zrotation Yrotation Xrotation
			JOINT LeftKnee
			{
				OFFSET 2.38468 -6.55187 0.00000
				CHANNELS 3 Zrotation Yrotation Xrotation
				JOINT LeftAnkle
				{
					OFFSET 2.37166 -6.51609 0.00000
					CHANNELS 3 Zrotation Yrotation Xrotation
					JOINT LeftToe
					{
						OFFSET 0.29078 -0.79891 2.01393
						CHANNELS 3 Zrotation Yrotation Xrotation
						End Site
						{
							OFFSET 0.00000 -0.00000 1.07924
						}
					}
				}
			}
		}
	}
	JOINT RHipJoint
	{
		OFFSET 0 0 0
		CHANNELS 3 Zrotation Yrotation Xrotation
		JOINT RightHip
		{
			OFFSET -1.36349 -1.57426 1.11036
			CHANNELS 3 Zrotation Yrotation Xrotation
			JOINT RightKnee
			{
				OFFSET -2.29562 -6.30717 0.00000
				CHANNELS 3 Zrotation Yrotation Xrotation
				JOINT RightAnkle
				{
					OFFSET -2.40985 -6.62100 0.00000
					CHANNELS 3 Zrotation Yrotation Xrotation
					JOINT RightToe
					{
						OFFSET -0.23197 -0.63733 1.92232
						CHANNELS 3 Zrotation Yrotation Xrotation
						End Site
						{
							OFFSET -0.00000 -0.00000 1.01562
						}
					}
				}
			}
		}
	}
	JOINT lowerback
	{
		OFFSET 0 0 0
		CHANNELS 3 Zrotation Yrotation Xrotation
		JOINT Chest
		{
			OFFSET -0.08565 2.03602 -0.24562
			CHANNELS 3 Zrotation Yrotation Xrotation
			JOINT Chest2
			{
				OFFSET -0.00036 2.05693 0.00216
				CHANNELS 3 Zrotation Yrotation Xrotation
				JOINT lowerneck
				{
					OFFSET 0 0 0
					CHANNELS 3 Zrotation Yrotation Xrotation
					JOINT Neck
					{
						OFFSET -0.03664 1.69515 0.31789
						CHANNELS 3 Zrotation Yrotation Xrotation
						JOINT Head
						{
							OFFSET 0.00932 1.70181 -0.46013
							CHANNELS 3 Zrotation Yrotation Xrotation
							End Site
							{
								OFFSET 0.01243 1.77620 -0.19377
							}
						}
					}
				}
				JOINT LeftCollar
				{
					OFFSET 0 0 0
					CHANNELS 3 Zrotation Yrotation Xrotation
					JOINT LeftShoulder
					{
						OFFSET 3.74344 0.81315 -0.36647
CHANNELS 3 Zrotation Xrotation Yrotation
						JOINT LeftElbow
						{
OFFSET 0 -4.971850 -0.000000
CHANNELS 3 Zrotation Xrotation Yrotation
							JOINT LeftWrist
							{
OFFSET 0 -3.358110 0.000000
CHANNELS 3 Zrotation Xrotation Yrotation
								JOINT lhand
								{
									OFFSET 0 0 0
CHANNELS 3 Zrotation Xrotation Yrotation
									JOINT LFingers
									{
OFFSET 0 -0.622780 0.000000
CHANNELS 3 Zrotation Xrotation Yrotation
										End Site
										{
OFFSET 0 -0.502100 0.000000
										}
									}
								}
								JOINT LThumb
								{
OFFSET 0 0.000000 0.000000
CHANNELS 3 Zrotation Xrotation Yrotation
									End Site
									{
OFFSET 0 -0.509760 0.509760
									}
								}
							}
						}
					}
				}
				JOINT RightCollar
				{
					OFFSET 0 0 0
					CHANNELS 3 Zrotation Yrotation Xrotation
					JOINT RightShoulder
					{
						OFFSET -3.75385 0.50666 -0.06525
CHANNELS 3 Zrotation Xrotation Yrotation
						JOINT RightElbow
						{
OFFSET 0 -4.964930 -0.000000
CHANNELS 3 Zrotation Xrotation Yrotation
							JOINT RightWrist
							{
OFFSET 0 -3.349290 0.000000
CHANNELS 3 Zrotation Xrotation Yrotation
								JOINT rhand
								{
									OFFSET 0 0 0
CHANNELS 3 Zrotation Xrotation Yrotation
									JOINT RFingers
									{
OFFSET 0 -0.638040 0.000000
CHANNELS 3 Zrotation Xrotation Yrotation
										End Site
										{
OFFSET 0 -0.514410 0.000000
										}
									}
								}
								JOINT RThumb
								{
OFFSET 0 0.000000 0.000000
CHANNELS 3 Zrotation Xrotation Yrotation
									End Site
									{
OFFSET 0 -0.522260 0.522260
									}
								}
							}
						}
					}
				}
			}
		}
	}
}
MOTION
Frames: 9
Frame Time: 0.008333333333333333
14.039523 15.150743 -4.066973 -546.229182 212.784220 -180.926272 0.000000 0.000000 0.000000 -11.995375 -16.197164 -33.112613 10.619704 17.743960 61.540417 1.184091 -8.384247 -19.484507 0.353494 3.819731 10.570074 0.000000 0.000000 0.000000 7.747198 -22.118909 -28.910084 -17.665396 -19.868679 83.159512 -0.109895 -6.561562 -11.725454 -0.437006 4.240739 -11.755053 3.922470 -0.478151 66.463729 -6.161474 -0.132734 7.109792 -8.750798 -0.230912 -13.855604 7.195665 11.582749 -26.118417 -18.573338 18.936255 21.651271 -4.530252 6.474108 14.623574 0.000000 0.000000 0.000000 27.524922 -26.368024 -45.828263 54.539787 -54.670048 29.840186 29.742155 -32.442976 13.563809 0.000000 0.000000 0.000000 -7.125000 0.000000 0.000000 1.599392 14.455397 1.150139 0.000000 0.000000 0.000000 -13.372971 -24.629152 45.441515 -49.469662 -52.779163 -25.751241 -20.309455 -14.265232 21.781467 0.000000 0.000000 0.000000 7.125000 0.000000 0.000000 8.784900 52.846418 -1.706151
13.720582 15.218687 -3.922569 -546.169629 210.160853 -180.347244 0.000000 0.000000 0.000000 -11.628310 -16.651326 -32.631491 10.507501 17.685513 61.171623 1.161833 -10.014937 -19.466214 0.396653 4.043374 11.198706 0.000000 0.000000 0.000000 9.123713 -16.535643 -33.470661 -16.164290 -19.641071 78.719485 -0.430938 -5.046754 -15.275550 -0.550491 4.750353 -13.198444 2.342159 0.336517 65.583992 -5.023468 0.006892 7.339134 -6.772149 -0.155760 -13.534025 6.069364 11.499190 -27.189747 -18.326226 19.173762 21.677801 -4.159931 6.438525 14.730339 0.000000 0.000000 0.000000 25.839590 -26.009531 -44.424084 56.378752 -55.264768 31.346089 29.081949 -32.244876 12.834961 0.000000 0.000000 0.000000 -7.125000 0.000000 0.000000 1.220833 15.369959 0.853739 0.000000 0.000000 0.000000 -14.672918 -26.318960 46.519259 -51.608181 -53.623103 -27.463926 -19.712562 -14.815904 21.663640 0.000000 0.000000 0.000000 7.125000 0.000000 0.000000 9.340897 52.617645 -1.763562
13.358090 15.262936 -3.813721 -546.180442 208.600713 -177.992471 0.000000 0.000000 0.000000 -10.129087 -16.532010 -34.730497 10.673783 17.771513 61.717377 1.113850 -12.132848 -19.458683 0.450630 4.306748 11.941416 0.000000 0.000000 0.000000 10.233485 -8.553076 -38.389785 -13.577825 -18.975869 70.906450 -0.640700 -2.387454 -16.203321 -1.017263 6.413791 -17.990935 0.893332 1.577838 62.134181 -4.431499 0.685840 7.676148 -5.734252 0.152796 -13.026257 5.766780 11.200085 -27.877949 -17.671613 18.733488 22.095323 -3.954334 6.238549 14.842963 0.000000 0.000000 0.000000 24.193659 -26.255937 -44.203352 56.322519 -55.247573 31.299863 28.065281 -31.709741 13.506906 0.000000 0.000000 0.000000 -7.125000 0.000000 0.000000 0.465157 14.752292 0.331296 0.000000 0.000000 0.000000 -14.629902 -27.131411 46.401941 -53.006308 -54.137864 -28.593262 -18.208906 -14.865372 20.910108 0.000000 0.000000 0.000000 7.125000 0.000000 0.000000 10.555270 51.587773 -1.728633
12.973920 15.183105 -3.780300 -544.580623 208.423369 -170.041995 0.000000 0.000000 0.000000 -7.478092 -16.555784 -45.775938 11.460941 18.152519 64.268601 0.983430 -14.377140 -19.059037 0.455072 4.327403 11.999569 0.000000 0.000000 0.000000 6.719130 3.091958 -49.797478 -10.782250 -17.820242 62.064016 -0.583909 5.480593 -13.639371 -1.229933 7.000026 -19.729055 -2.638527 3.689810 48.150336 -4.018183 1.968277 9.692283 -3.910749 0.790126 -10.004735 5.451217 10.695399 -28.625684 -17.419357 18.084413 22.247619 -3.952828 5.915526 14.893333 0.000000 0.000000 0.000000 22.903872 -26.059511 -44.897086 57.616732 -55.640603 32.365726 28.602888 -32.235796 13.986883 0.000000 0.000000 0.000000 -7.125000 0.000000 0.000000 0.785446 14.141428 0.570175 0.000000 0.000000 0.000000 -15.007806 -27.547525 45.928657 -54.363312 -54.610419 -29.696321 -18.095689 -14.572297 20.739678 0.000000 0.000000 0.000000 7.125000 0.000000 0.000000 10.604083 51.395891 -1.686523
12.546229 15.089804 -3.742632 -544.128843 207.291726 -163.571491 0.000000 0.000000 0.000000 -4.245423 -16.269493 -54.307263 12.190888 18.470051 66.592362 0.784023 -17.115388 -18.580472 0.464074 4.369241 12.118011 0.000000 0.000000 0.000000 2.045589 10.554412 -58.130266 -8.001201 -16.113904 52.556961 -0.121591 10.023058 -8.885808 -1.760091 8.343242 -23.764062 -4.099869 4.142701 38.630936 -3.836867 2.684427 10.088367 -2.971708 1.157875 -7.602880 5.054254 10.154839 -29.583136 -17.256916 17.482461 22.527738 -3.965864 5.573642 15.061159 0.000000 0.000000 0.000000 21.873907 -26.256001 -45.395400 57.222465 -55.522795 32.040572 29.290178 -32.424666 13.891523 0.000000 0.000000 0.000000 -7.125000 0.000000 0.000000 1.260351 14.150904 0.913438 0.000000 0.000000 0.000000 -14.574218 -27.946273 44.994429 -54.231034 -54.565636 -29.588462 -18.286955 -14.312532 20.448844 0.000000 0.000000 0.000000 7.125000 0.000000 0.000000 10.312457 51.132959 -1.572156
12.079745 15.064368 -3.651964 -543.293634 204.260584 -161.386529 0.000000 0.000000 0.000000 -2.744379 -16.842161 -57.023208 12.401256 18.555130 67.255008 0.633646 -19.001602 -18.352850 0.286232 3.434685 9.492020 0.000000 0.000000 0.000000 -1.196671 12.792341 -61.262182 -6.719598 -15.091113 47.805563 0.189030 11.665826 -5.111892 -2.920329 10.557064 -30.807989 -3.145077 3.305864 35.511640 -4.079638 2.269447 9.864535 -3.454637 1.007914 -6.894431 4.723922 9.855964 -29.907637 -16.643308 17.061727 22.845896 -3.768864 5.413615 15.080076 0.000000 0.000000 0.000000 21.396872 -26.212064 -45.524069 55.542043 -54.999903 30.659521 29.819010 -32.086709 13.937522 0.000000 0.000000 0.000000 -7.125000 0.000000 0.000000 1.613133 14.021855 1.174143 0.000000 0.000000 0.000000 -13.782003 -27.660028 44.097004 -53.303233 -54.243715 -28.834071 -17.915618 -14.370493 20.151754 0.000000 0.000000 0.000000 7.125000 0.000000 0.000000 10.569601 50.770065 -1.517310
11.532349 15.061339 -3.523942 -541.647008 199.983541 -162.621663 0.000000 0.000000 0.000000 -2.654671 -18.677012 -55.025108 12.155472 18.455537 66.480636 0.437701 -20.817831 -17.929847 0.079761 1.820379 5.009529 0.000000 0.000000 0.000000 -1.637703 12.086182 -60.659330 -7.647240 -15.853359 51.281605 0.134090 9.843070 -4.308284 -1.232048 7.028908 -19.805075 -2.674847 2.315653 36.156829 -3.292841 1.321202 9.630266 -2.559356 0.578023 -7.307307 3.785858 9.939923 -29.236289 -17.125604 17.777074 22.841544 -3.650570 5.607140 15.031352 0.000000 0.000000 0.000000 19.919321 -24.778491 -45.121026 54.889780 -54.786864 30.125923 30.390858 -31.710959 13.193886 0.000000 0.000000 0.000000 -7.125000 0.000000 0.000000 2.078032 14.782218 1.480031 0.000000 0.000000 0.000000 -14.462839 -27.040933 44.157637 -51.382852 -53.538195 -27.282415 -17.242528 -14.449681 19.517774 0.000000 0.000000 0.000000 7.125000 0.000000 0.000000 11.000286 50.020464 -1.376019
10.917647 15.115144 -3.374914 -540.048199 195.790114 -165.535619 0.000000 0.000000 0.000000 -3.207248 -20.260994 -50.347959 11.712975 18.266569 65.075987 0.158369 -22.799886 -17.201374 0.027108 1.058571 2.910128 0.000000 0.000000 0.000000 -0.000405 10.369767 -56.461398 -8.314648 -16.345800 53.688107 -0.152787 8.950795 -8.776535 -0.686687 5.291205 -14.742695 -1.484625 1.448279 39.234616 -3.282499 0.606744 9.634845 -2.957148 0.268273 -8.365217 3.951888 10.195149 -28.813944 -17.517604 18.228243 22.849572 -3.734358 5.793426 15.092445 0.000000 0.000000 0.000000 19.726048 -23.820861 -44.719667 54.256762 -54.574420 29.609433 30.722690 -31.658746 13.337189 0.000000 0.000000 0.000000 -7.125000 0.000000 0.000000 2.288237 14.570621 1.640302 0.000000 0.000000 0.000000 -14.228860 -25.874715 44.052027 -50.403201 -53.156453 -26.496585 -18.009012 -13.872810 19.796261 0.000000 0.000000 0.000000 7.125000 0.000000 0.000000 10.355537 50.424758 -1.397151
10.261136 15.157799 -3.247037 -538.494890 192.076861 -167.178629 0.000000 0.000000 0.000000 -3.031308 -20.900239 -47.406836 11.233527 18.047161 63.537302 -0.560913 -25.359604 -14.024748 0.095274 1.821273 5.016280 0.000000 0.000000 0.000000 1.302207 9.035794 -53.501849 -8.751552 -16.645002 55.226733 -0.540750 8.100676 -13.439431 -0.583779 4.882767 -13.576253 -0.309210 1.063831 40.861921 -3.799476 0.538241 9.703041 -4.124255 0.268557 -8.814909 4.750385 10.235678 -29.067806 -17.949422 18.218755 23.248416 -4.055016 5.769756 15.480283 0.000000 0.000000 0.000000 20.487968 -23.472901 -44.898924 54.460739 -54.643446 29.775684 30.567626 -31.849730 12.579037 0.000000 0.000000 0.000000 -7.125000 0.000000 0.000000 2.262234 15.458449 1.578736 0.000000 0.000000 0.000000 -13.295323 -24.826385 42.216529 -48.514757 -52.377769 -24.993069 -18.619918 -13.047738 20.564150 0.000000 0.000000 0.000000 7.125000 0.000000 0.000000 10.026982 51.305890 -1.570836
